<?xml version="1.0" encoding="UTF-8"?>
<svg version="1.1" xmlns="http://www.w3.org/2000/svg" width="25" height="27">
<path d="M0 0 C8.25 0 16.5 0 25 0 C25 8.91 25 17.82 25 27 C16.75 27 8.5 27 0 27 C0 18.09 0 9.18 0 0 Z " fill="#141929" transform="translate(0,0)"/>
<path d="M0 0 C1.8871875 0.061875 1.8871875 0.061875 3.8125 0.125 C3.8125 1.445 3.8125 2.765 3.8125 4.125 C0.8425 3.63 0.8425 3.63 -2.1875 3.125 C-1.49893065 6.32213358 -1.49893065 6.32213358 1.3125 7.5 C3.8125 9.125 3.8125 9.125 4.8125 11.625 C4.8125 14.125 4.8125 14.125 3.875 15.9375 C0.58031888 17.83443762 -2.42988464 17.30980076 -6.1875 17.125 C-6.5175 15.475 -6.8475 13.825 -7.1875 12.125 C-4.2175 12.62 -4.2175 12.62 -1.1875 13.125 C-0.8575 12.465 -0.5275 11.805 -0.1875 11.125 C-1.363125 10.691875 -1.363125 10.691875 -2.5625 10.25 C-5.1875 9.125 -5.1875 9.125 -7.1875 7.125 C-7.5 4.625 -7.5 4.625 -7.1875 2.125 C-4.09861478 0.06574319 -3.47814073 -0.1140374 0 0 Z " fill="#EAEDEC" transform="translate(13.1875,4.875)"/>
</svg>
